<svg width="110" height="75" viewBox="0 0 110 75" fill="none" xmlns="http://www.w3.org/2000/svg">
<g filter="url(#filter0_d)">
<path d="M106 0.145752C93.1225 8.82826 91.7519 15.1296 90.6362 17.0572C89.5684 19.0334 88.7716 26.825 86.9228 30.5993C85.0581 34.4222 78.2847 37.4352 76.3881 38.6987C74.5234 39.9622 71.8778 44.8704 69.7103 49.0982C52.4819 48.3855 43.0309 55.3833 28.4003 64.2602C33.0859 62.6889 35.3012 61.555 35.3012 61.555C50.3144 55.7235 57.5022 50.4913 80.1016 53.5853C80.2769 53.5853 80.4044 53.6825 80.5478 53.7149C81.1694 54.0712 81.3925 54.8326 81.0419 55.4643L72.4516 70.9827C72.0531 71.744 71.2084 72.149 70.3637 71.9708C50.155 68.1155 34.2016 74.7732 19.5391 74.9838C7.84094 75.1619 4 69.5572 4 69.298C4 69.1198 4.09563 69.0226 4.27094 69.0226C4.27094 69.0226 10.375 69.0226 20.7025 66.5442C32.4325 43.8175 42.8875 35.8639 54.2669 35.8639C54.2669 35.8639 65.6941 35.8639 68.7062 45.8909C72.34 39.46 73.2166 37.9211 73.2166 37.9211C74.0612 36.3985 78.7947 25.4157 86.9866 15.0162C95.1944 4.64899 101.394 2.0734 106 0.145752Z" fill="#737373"/>
</g>
<defs>
<filter id="filter0_d" x="0" y="0" width="110" height="83" filterUnits="userSpaceOnUse" color-interpolation-filters="sRGB">
<feFlood flood-opacity="0" result="BackgroundImageFix"/>
<feColorMatrix in="SourceAlpha" type="matrix" values="0 0 0 0 0 0 0 0 0 0 0 0 0 0 0 0 0 0 127 0" result="hardAlpha"/>
<feOffset dy="4"/>
<feGaussianBlur stdDeviation="2"/>
<feComposite in2="hardAlpha" operator="out"/>
<feColorMatrix type="matrix" values="0 0 0 0 0 0 0 0 0 0 0 0 0 0 0 0 0 0 0.25 0"/>
<feBlend mode="normal" in2="BackgroundImageFix" result="effect1_dropShadow"/>
<feBlend mode="normal" in="SourceGraphic" in2="effect1_dropShadow" result="shape"/>
</filter>
</defs>
</svg>
